<svg xmlns="http://www.w3.org/2000/svg" width="24" height="24" viewBox="0 0 24 24" fill="none">
  <path d="M11.8419 24.002C18.3819 24.002 23.6837 18.6294 23.6837 12.002C23.6837 5.37454 18.3819 0.00195312 11.8419 0.00195312C5.30178 0.00195312 0 5.37454 0 12.002C0 18.6294 5.30178 24.002 11.8419 24.002Z" fill="#004763"/>
  <mask id="mask0_1651_23641" style="mask-type:alpha" maskUnits="userSpaceOnUse" x="0" y="0" width="24" height="25">
    <path d="M12.1581 24.002C18.6982 24.002 24 18.6294 24 12.002C24 5.37454 18.6982 0.00195312 12.1581 0.00195312C5.61806 0.00195312 0.316284 5.37454 0.316284 12.002C0.316284 18.6294 5.61806 24.002 12.1581 24.002Z" fill="#004763"/>
  </mask>
  <g mask="url(#mask0_1651_23641)">
    <path d="M24.0001 0.00195312H11.1714V24.002H24.0001V0.00195312Z" fill="#00354A"/>
  </g>
</svg>