<svg xmlns="http://www.w3.org/2000/svg" width="24" height="24" viewBox="0 0 24 24" fill="none">
  <path d="M11.7624 7.6142C11.7624 8.00179 11.9746 8.35247 12.3207 8.52781L13.7096 9.23379C14.1618 9.4645 14.5263 9.82902 14.757 10.2812L15.463 11.6701C15.6383 12.0161 15.989 12.2284 16.3766 12.2284C16.7642 12.2284 17.1148 12.0161 17.2902 11.6701L17.9962 10.2812C18.2269 9.82902 18.5914 9.4645 19.0436 9.23379L20.4325 8.52781C20.7785 8.35247 20.9908 8.00179 20.9908 7.6142C20.9908 7.22661 20.7785 6.87593 20.4325 6.70059L19.0436 5.99462C18.5914 5.76391 18.2269 5.39938 17.9962 4.94719L17.2902 3.55832C17.1148 3.21225 16.7642 3 16.3766 3C15.989 3 15.6383 3.21225 15.463 3.55832L14.757 4.94719C14.5263 5.39938 14.1618 5.76391 13.7096 5.99462L12.3207 6.70059C11.9746 6.87593 11.7624 7.22661 11.7624 7.6142ZM14.3371 7.22661C15.0523 6.86209 15.6245 6.28993 15.989 5.57472L16.3766 4.81338L16.7642 5.57472C17.1287 6.28993 17.7008 6.86209 18.416 7.22661L19.1774 7.6142L18.416 8.00179C17.7008 8.36632 17.1287 8.93848 16.7642 9.65368L16.3766 10.415L15.989 9.65368C15.6245 8.93848 15.0523 8.36632 14.3371 8.00179L13.5757 7.6142L14.3371 7.22661Z" fill="#006A94"/>
  <path d="M8.30172 9.69059C9.06622 9.69059 9.68598 9.07084 9.68598 8.30633C9.68598 7.54183 9.06622 6.92207 8.30172 6.92207C7.53721 6.92207 6.91746 7.54183 6.91746 8.30633C6.91746 9.07084 7.53721 9.69059 8.30172 9.69059Z" fill="#006A94"/>
  <path d="M20.2986 10.3827C19.9157 10.3827 19.6065 10.6919 19.6065 11.0749V15.6891C19.6065 15.7444 19.6019 15.7998 19.5973 15.8552L17.5716 14.1156C16.6119 13.2897 15.2184 13.2897 14.2587 14.1156L13.1882 15.0385L9.98129 12.2838C9.02153 11.4578 7.62804 11.4578 6.66829 12.2838L4.38426 14.2494V8.31095C4.38426 6.14689 6.14227 4.38887 8.30633 4.38887H12.9205C13.3035 4.38887 13.6127 4.07972 13.6127 3.69674C13.6127 3.31377 13.3035 3.00461 12.9205 3.00461H8.30633C5.38093 3.00461 3 5.38554 3 8.31095V15.6937C3 18.6191 5.38093 21 8.30633 21H15.6891C18.6145 21 20.9954 18.6191 20.9954 15.6937V11.0795C20.9954 10.6965 20.6862 10.3873 20.3033 10.3873L20.2986 10.3827ZM4.3981 16.0536L7.56806 13.3312C8.00641 12.9528 8.64317 12.9574 9.0769 13.3312L12.1223 15.9474L7.88644 19.5881C6.03614 19.3943 4.56883 17.9085 4.3981 16.0536ZM15.6844 19.6111H9.9859L15.163 15.163C15.6014 14.7847 16.2381 14.7847 16.6719 15.163L19.2281 17.3594C18.6006 18.6883 17.2487 19.6111 15.6844 19.6111Z" fill="#006A94"/>
</svg>